<svg width="40" height="50" viewBox="0 0 40 50" fill="none" xmlns="http://www.w3.org/2000/svg">
<path d="M30.7422 31.25H28.4192L25.3711 28.2019V27.7739C28.2986 25.9664 30.2539 22.7289 30.2539 19.043V13.1254C33.1812 11.3179 35.1365 8.08057 35.1367 4.39482C35.1367 3.2209 34.6797 2.11738 33.8497 1.2873C33.0197 0.457227 31.9161 0 30.7422 0H17.0703C13.0317 0 9.74609 3.28564 9.74609 7.32422V19.043C9.74609 22.7289 11.7014 25.9664 14.6289 27.7739V28.2019L11.5808 31.25H9.25781C4.68076 31.25 0.957031 34.9737 0.957031 39.5508V48.5352C0.957031 49.3441 1.61289 50 2.42188 50H37.5781C38.3871 50 39.043 49.3441 39.043 48.5352V39.5508C39.043 34.9737 35.3192 31.25 30.7422 31.25ZM26.1097 33.0837L24.2205 38.1216L21.8397 36.217L24.3075 31.2814L26.1097 33.0837ZM12.6758 7.32422C12.6758 4.90107 14.6472 2.92969 17.0703 2.92969H30.7422C31.1335 2.92969 31.5014 3.08213 31.778 3.35879C32.0547 3.63545 32.207 4.00332 32.207 4.39463C32.2068 8.43311 28.9211 11.7188 24.8825 11.7188H24.3673C22.2318 11.7188 20.312 10.5322 19.357 8.62227C19.1089 8.12598 18.6018 7.8125 18.0469 7.8125C17.492 7.8125 16.9849 8.12598 16.7366 8.62227C15.9257 10.244 14.4192 11.3442 12.6758 11.6394V7.32422ZM12.6758 19.043V14.5962C14.7648 14.3668 16.6635 13.3861 18.0469 11.8543C19.6372 13.6154 21.9084 14.6484 24.3673 14.6484H24.8825C25.7237 14.6484 26.5413 14.5459 27.3242 14.3539V19.043C27.3242 23.0815 24.0386 26.3672 20 26.3672C15.9614 26.3672 12.6758 23.0815 12.6758 19.043ZM15.6925 31.2814L18.1603 36.217L15.7795 38.1216L13.8903 33.0837L15.6925 31.2814ZM18.5352 47.0703H3.88672V39.5508C3.88672 36.5892 6.29619 34.1797 9.25781 34.1797H11.1724L13.7456 41.0417C14.061 41.955 15.2915 42.2958 16.0323 41.6712L18.5352 39.6688V47.0703ZM17.8634 29.0723C18.5528 29.2189 19.2675 29.2969 20 29.2969C20.7325 29.2969 21.4472 29.219 22.1366 29.0723L20 33.3456L17.8634 29.0723ZM36.1133 47.0703H21.4648V39.6688L23.9677 41.6712C24.7085 42.2958 25.939 41.9548 26.2544 41.0417L28.8276 34.1797H30.7422C33.7038 34.1797 36.1133 36.5892 36.1133 39.5508V47.0703Z" fill="white"/>
</svg>
